<svg width="135" height="32" viewBox="0 0 135 32" fill="none" xmlns="http://www.w3.org/2000/svg">
<path d="M45.74 25L41.68 10.6H44.8L48.16 23.78H47.18L50.18 10.6H53.68L56.64 23.78H55.68L59.06 10.6H62.04L57.98 25H54.54L51.48 12.08H52.28L49.18 25H45.74ZM63.7188 25V10.6H66.7988V25H63.7188ZM74.7169 25.18C72.8502 25.18 71.3569 24.7667 70.2369 23.94C69.1169 23.1 68.4635 21.92 68.2769 20.4H71.2369C71.3302 21.1733 71.7035 21.7867 72.3569 22.24C73.0102 22.68 73.8435 22.9 74.8569 22.9C75.6835 22.9 76.3169 22.7533 76.7569 22.46C77.2102 22.1667 77.4369 21.7733 77.4369 21.28C77.4369 20.8133 77.3035 20.44 77.0369 20.16C76.7702 19.8667 76.3102 19.6333 75.6569 19.46L72.9769 18.72C71.6035 18.3333 70.5969 17.8067 69.9569 17.14C69.3302 16.46 69.0169 15.6133 69.0169 14.6C69.0169 13.7333 69.2369 12.9867 69.6769 12.36C70.1302 11.72 70.7635 11.2333 71.5769 10.9C72.3902 10.5533 73.3435 10.38 74.4369 10.38C76.1169 10.38 77.4569 10.78 78.4569 11.58C79.4569 12.3667 80.0235 13.4133 80.1569 14.72H77.1969C77.0635 14.0133 76.7369 13.4933 76.2169 13.16C75.7102 12.8267 75.0569 12.66 74.2569 12.66C73.5635 12.66 73.0102 12.7933 72.5969 13.06C72.1835 13.3267 71.9769 13.6867 71.9769 14.14C71.9769 14.4867 72.0902 14.8067 72.3169 15.1C72.5435 15.38 73.0169 15.62 73.7369 15.82L76.4169 16.56C77.8302 16.9467 78.8435 17.48 79.4569 18.16C80.0835 18.8267 80.3969 19.6733 80.3969 20.7C80.3969 22.14 79.8969 23.2467 78.8969 24.02C77.8969 24.7933 76.5035 25.18 74.7169 25.18ZM83.7238 25V22.6H87.3638C88.4038 22.6 89.2838 22.3933 90.0038 21.98C90.7371 21.5533 91.2904 20.9733 91.6638 20.24C92.0504 19.5067 92.2438 18.6667 92.2438 17.72C92.2438 16.7867 92.0571 15.9667 91.6838 15.26C91.3104 14.5533 90.7571 14 90.0238 13.6C89.3038 13.2 88.4171 13 87.3638 13H83.7837V10.6H87.3638C88.9771 10.6 90.3838 10.8933 91.5838 11.48C92.7838 12.0533 93.7104 12.88 94.3638 13.96C95.0304 15.0267 95.3638 16.2933 95.3638 17.76C95.3638 19.2267 95.0304 20.5067 94.3638 21.6C93.6971 22.68 92.7638 23.52 91.5638 24.12C90.3771 24.7067 88.9838 25 87.3838 25H83.7238ZM81.8438 25V10.6H84.9238V25H81.8438ZM96.8809 25V10.6H103.321C104.361 10.6 105.268 10.78 106.041 11.14C106.814 11.4867 107.414 11.98 107.841 12.62C108.268 13.26 108.481 14.0067 108.481 14.86C108.481 15.7 108.268 16.44 107.841 17.08C107.414 17.7067 106.814 18.2 106.041 18.56C105.268 18.9067 104.361 19.08 103.321 19.08H99.3209V16.82H103.241C103.974 16.82 104.534 16.6533 104.921 16.32C105.321 15.9733 105.521 15.4933 105.521 14.88C105.521 14.2533 105.328 13.78 104.941 13.46C104.554 13.1267 103.988 12.96 103.241 12.96H99.9609V25H96.8809ZM105.001 25L99.2209 17.52H102.481L109.161 25H105.001ZM110.32 25V10.6H113.4V25H110.32ZM111.76 25V22.64H121.04V25H111.76ZM111.76 18.8V16.48H120.34V18.8H111.76ZM111.76 12.96V10.6H120.8V12.96H111.76ZM128.193 25.18C126.327 25.18 124.833 24.7667 123.713 23.94C122.593 23.1 121.94 21.92 121.753 20.4H124.713C124.807 21.1733 125.18 21.7867 125.833 22.24C126.487 22.68 127.32 22.9 128.333 22.9C129.16 22.9 129.793 22.7533 130.233 22.46C130.687 22.1667 130.913 21.7733 130.913 21.28C130.913 20.8133 130.78 20.44 130.513 20.16C130.247 19.8667 129.787 19.6333 129.133 19.46L126.453 18.72C125.08 18.3333 124.073 17.8067 123.433 17.14C122.807 16.46 122.493 15.6133 122.493 14.6C122.493 13.7333 122.713 12.9867 123.153 12.36C123.607 11.72 124.24 11.2333 125.053 10.9C125.867 10.5533 126.82 10.38 127.913 10.38C129.593 10.38 130.933 10.78 131.933 11.58C132.933 12.3667 133.5 13.4133 133.633 14.72H130.673C130.54 14.0133 130.213 13.4933 129.693 13.16C129.187 12.8267 128.533 12.66 127.733 12.66C127.04 12.66 126.487 12.7933 126.073 13.06C125.66 13.3267 125.453 13.6867 125.453 14.14C125.453 14.4867 125.567 14.8067 125.793 15.1C126.02 15.38 126.493 15.62 127.213 15.82L129.893 16.56C131.307 16.9467 132.32 17.48 132.933 18.16C133.56 18.8267 133.873 19.6733 133.873 20.7C133.873 22.14 133.373 23.2467 132.373 24.02C131.373 24.7933 129.98 25.18 128.193 25.18Z" fill="#4A8513"/>
<g clip-path="url(#clip0_168_727)">
<path d="M2.35811 26.6244C2.06841 26.823 1.75695 26.8588 1.46836 26.953C1.15044 27.0567 0.855242 27.1862 0.795118 27.5629C0.733879 27.9467 0.914474 28.2393 1.19802 28.4706C1.56136 28.767 2.00004 28.8401 2.44956 28.8626C2.62095 28.8712 2.72984 28.8692 2.72249 29.1201C2.71039 29.5287 3.03721 29.7193 3.35668 29.8661C4.10474 30.2096 4.89652 30.2991 5.70945 30.2269C5.89383 30.2105 6.08957 30.2134 6.25851 30.1495C6.97116 29.8795 7.64358 30.1921 8.33233 30.2652C8.50921 30.284 8.45465 30.4231 8.47143 30.5201C8.5415 30.9243 8.68617 31.2881 9.02145 31.5444C9.33447 31.7836 9.68014 31.9091 10.0528 31.7056C10.1993 31.6257 10.2682 31.6857 10.3722 31.7578C10.88 32.1099 11.2679 32.0844 11.7077 31.6399C11.8156 31.5307 11.8816 31.5934 11.9638 31.6158C12.7111 31.8189 13.1854 31.3804 13.0448 30.6183C13.0276 30.5254 12.863 30.3492 13.1111 30.3545C13.2893 30.3584 13.5594 30.195 13.6353 30.5217C13.6896 30.7553 13.7699 30.9742 13.9022 31.1717C14.2657 31.7139 14.826 31.8708 15.4051 31.5741C15.5213 31.5145 15.5802 31.553 15.6689 31.5965C16.292 31.9019 16.5697 31.8477 17.0045 31.3223C17.0748 31.2375 17.1333 31.2274 17.2248 31.2541C17.5932 31.3616 17.9235 31.3039 18.1359 30.96C18.3547 30.6057 18.291 30.2413 18.0761 29.9058C17.977 29.751 17.9048 29.6686 18.1518 29.5681C20.6527 28.5509 22.2598 26.6655 23.2238 24.1823C23.3618 23.8269 23.4728 23.8342 23.7391 24.0312C23.9963 24.2212 24.2862 24.3676 24.5661 24.525C25.903 25.277 27.1851 25.1753 28.4203 24.2772C30.0817 23.0692 31.1825 21.4212 32.0485 19.5907C32.988 17.6045 32.9462 15.5723 32.2835 13.5245C32.0681 12.8588 31.7119 12.2567 31.2968 11.697C31.177 11.5354 31.1907 11.4675 31.3459 11.3622C31.7072 11.1168 32.0249 10.82 32.2702 10.4547C32.6048 9.95641 32.6115 9.45884 32.3018 9.03155C31.9506 8.54692 31.3776 8.33151 30.8372 8.47125C30.3599 8.59462 29.9957 8.91821 29.5254 9.2391C29.5254 8.54258 29.5363 7.91454 29.5234 7.28703C29.4808 5.22161 29.4475 3.15574 29.313 1.09353C29.2992 0.882692 29.2698 0.672449 29.2388 0.463253C29.2065 0.245159 29.1473 0.0262435 28.8731 0.0306547C28.6028 0.0349164 28.5383 0.257197 28.507 0.471926C28.4496 0.865645 28.3941 1.26079 28.3637 1.65735C28.1828 4.01443 28.067 6.37533 27.9678 8.73705C27.9407 9.38348 27.9092 10.0299 27.8971 10.6767C27.8927 10.9099 27.7757 11.071 27.6496 11.2407C26.4822 12.8107 25.6521 14.5468 25.1297 16.4343C24.595 16.2253 24.4405 15.9757 24.4145 15.3608C24.345 13.719 24.2604 12.0772 23.7297 10.5018C23.2908 9.19895 22.6215 8.03492 21.6298 7.07574C21.4662 6.91746 21.4211 6.84576 21.6482 6.67559C22.8328 5.78759 23.0383 4.12665 22.126 3.00927C21.7922 2.6003 21.605 2.62191 21.3836 3.09279C20.9424 4.03065 20.1953 4.70123 19.4359 5.36292C19.3203 5.4637 19.2385 5.40022 19.1366 5.36045C18.6997 5.18991 18.2633 5.01735 17.8215 4.86041C17.6959 4.81578 17.5962 4.79499 17.5967 4.62535C17.5973 4.45503 17.707 4.42609 17.8261 4.38497C18.3979 4.18789 18.9687 3.98796 19.5401 3.79006C19.7061 3.73264 19.8828 3.68322 19.8866 3.46026C19.8904 3.23918 19.7255 3.17974 19.5547 3.1206C17.8993 2.54736 16.2442 1.97331 14.5912 1.39312C14.4298 1.33645 14.2899 1.33667 14.1287 1.39327C12.4757 1.97353 10.8203 2.54729 9.16538 3.12209C8.99621 3.18086 8.82817 3.24404 8.83551 3.4655C8.84204 3.66445 8.99889 3.72755 9.15372 3.78213C9.33989 3.84778 9.53295 3.89682 9.71235 3.97727C9.80863 4.02041 10.0153 3.98467 9.97245 4.15693C9.93563 4.3049 9.9262 4.51282 9.70226 4.55918C9.49353 4.60239 9.29921 4.68665 9.15788 4.8557C9.04105 4.99551 8.96467 4.89114 8.8871 4.81764C8.34443 4.30318 7.85149 3.74916 7.53313 3.05936C7.34318 2.64785 7.16007 2.61936 6.85492 2.95649C5.89955 4.01204 6.08444 5.78086 7.26265 6.65473C7.4955 6.82744 7.51331 6.89922 7.3031 7.10654C5.79325 8.59604 5.03696 10.4536 4.74807 12.5288C4.64348 13.2802 4.56161 14.0348 4.4689 14.7878C4.45561 14.8955 4.46912 15.0093 4.33017 15.0626C3.39989 15.4194 2.92387 16.2111 2.53128 17.0501C1.87289 18.4567 1.73223 19.9348 2.04963 21.4569C2.06165 21.5145 2.06699 21.5735 2.07813 21.6507C1.9748 21.6507 1.89063 21.6491 1.80653 21.651C1.11682 21.6656 0.757706 22.1195 0.92301 22.7857C0.956858 22.9222 0.995678 23.0153 0.82258 23.0727C-0.0366669 23.358 -0.0805359 24.3896 0.184898 25.0695C0.482918 25.833 1.09032 26.2931 1.87059 26.5163C2.01889 26.5587 2.17217 26.5837 2.35811 26.6244Z" fill="#6E4100"/>
<path d="M1.88899 5.60105C1.76934 5.61712 1.64679 5.66168 1.61108 5.8249C1.59253 5.90983 1.56135 5.99372 1.55556 6.0794C1.51244 6.7114 1.2735 7.15387 0.564263 7.19133C0.382407 7.20097 0.234474 7.31357 0.237443 7.52942C0.240338 7.74617 0.389905 7.8477 0.574656 7.85578C1.27239 7.88621 1.49574 8.33189 1.552 8.94221C1.56217 9.05249 1.59193 9.16336 1.6289 9.26811C1.67626 9.40247 1.79925 9.45166 1.92462 9.45331C2.05036 9.45495 2.16927 9.40456 2.22442 9.27394C2.25314 9.20568 2.28113 9.13211 2.28581 9.05936C2.32953 8.37899 2.56356 7.87282 3.34369 7.83634C3.52035 7.82811 3.60771 7.69555 3.61588 7.53421C3.62545 7.34647 3.51589 7.21944 3.32966 7.21009C2.5669 7.17159 2.34801 6.67761 2.28499 6.01174C2.25441 5.68845 2.12837 5.59095 1.88899 5.60105Z" fill="#FFCF00"/>
<path d="M32.84 6.72052C32.8489 6.85136 32.8843 6.96553 33.0236 7.01256C33.1692 7.06176 33.3022 7.02976 33.3803 6.90019C33.6548 6.44501 33.9331 5.99387 34.2557 5.56994C34.3465 5.45054 34.3398 5.27888 34.1999 5.16852C34.0818 5.07551 33.9195 5.05667 33.826 5.16583C33.4398 5.61675 33.1208 6.11626 32.8534 6.64807C32.8429 6.66908 32.8442 6.69608 32.84 6.72052Z" fill="#57A64F"/>
<path d="M34.1918 8.12097C34.6401 7.92994 35.1211 7.71559 35.5542 7.41024C35.6708 7.328 35.6559 7.18422 35.6113 7.06834C35.5611 6.93772 35.4283 6.86916 35.3092 6.92381C34.8313 7.1431 34.3582 7.37443 33.8939 7.62131C33.787 7.67821 33.7597 7.81981 33.8201 7.95327C33.887 8.10116 34.003 8.14131 34.1918 8.12097Z" fill="#57A64F"/>
<path d="M35.0529 9.73249C35.261 9.73249 35.4697 9.74123 35.6773 9.72994C35.87 9.7194 36.0113 9.63028 35.9993 9.40882C35.9883 9.20591 35.8476 9.13286 35.6711 9.13593C35.2421 9.1434 34.8131 9.15828 34.3846 9.17847C34.2099 9.18669 34.1198 9.29735 34.1198 9.47125C34.1198 9.64905 34.2275 9.75245 34.3909 9.76486C34.6104 9.78146 34.8321 9.76897 35.0528 9.76897C35.0528 9.75679 35.0528 9.7446 35.0529 9.73249Z" fill="#59A751"/>
<path d="M21.8152 3.42857C21.2004 4.45384 20.3695 5.22865 19.4548 5.92054C19.0485 6.22783 18.9788 6.2051 18.8048 5.72465C18.7739 5.63956 18.7181 5.61407 18.6475 5.58812C18.5664 5.55837 18.4877 5.52226 18.4077 5.48943C17.9975 5.32076 17.6822 5.16786 17.2527 5.63755C16.6688 6.27627 15.7774 6.40854 14.9336 6.48442C13.9744 6.5707 13.0338 6.46155 12.1435 6.05691C11.8147 5.90745 11.4984 5.73594 11.2825 5.43246C11.2046 5.32293 11.1349 5.28839 11.0075 5.34394C10.7925 5.43762 10.5719 5.51852 10.352 5.59994C10.2525 5.63672 10.2089 5.68726 10.1793 5.8045C10.0906 6.15575 9.92317 6.20607 9.61528 5.9814C8.6576 5.28255 7.80229 4.48098 7.17938 3.4513C6.73676 3.91231 6.80327 4.90491 7.15748 5.44293C7.48311 5.93758 7.9258 6.24734 8.50848 6.33437C8.7368 6.36846 8.94924 6.40996 8.90574 6.70057C8.86611 6.96555 8.64372 6.99156 8.44472 6.93055C8.19925 6.85527 8.07804 7.01041 7.93619 7.14169C6.54281 8.43164 5.773 10.0589 5.44826 11.9088C5.2958 12.7775 5.2212 13.6599 5.10244 14.5349C5.0841 14.6698 5.09472 14.7463 5.24191 14.7756C6.57599 15.0414 7.36428 16.0006 8.00938 17.0818C9.69953 19.9147 8.72322 23.8597 5.9602 25.5041C5.5648 25.7395 5.14296 25.9181 4.7097 26.0575C4.47411 26.1332 4.46973 26.2201 4.53883 26.4269C5.15625 28.2732 6.48803 29.2008 8.34815 29.4534C9.50557 29.6106 10.67 29.5327 11.831 29.5338C13.1274 29.5351 14.425 29.5925 15.718 29.4012C19.1882 28.8879 21.4714 26.9106 22.733 23.6675C23.5042 21.6852 23.7902 19.608 23.8541 17.4951C23.9102 15.639 23.8596 13.7845 23.5469 11.9502C23.2317 10.1006 22.4772 8.46626 21.0992 7.16069C20.9251 6.99583 20.7691 6.84143 20.488 6.93579C20.2925 7.00136 20.1001 6.923 20.0705 6.68973C20.0412 6.4587 20.1935 6.3722 20.4106 6.34439C21.9191 6.15149 22.5232 4.47089 21.8152 3.42857Z" fill="#F2ECD9"/>
<path d="M27.7171 12.175C26.8229 13.5661 26.0755 15.0843 25.6768 16.7622C25.6538 16.8589 25.6396 16.9582 25.6105 17.0529C25.5295 17.3168 25.3565 17.3831 25.1273 17.243C24.9182 17.1152 24.7238 16.9631 24.5166 16.8173C24.4402 16.9591 24.4283 17.0941 24.4283 17.2283C24.4287 19.1925 24.1899 21.1237 23.6352 23.0102C23.5928 23.1543 23.615 23.2445 23.7396 23.324C24.3032 23.6833 24.8624 24.0481 25.4955 24.2802C26.3947 24.6099 27.1957 24.37 27.9509 23.865C28.978 23.1781 29.7669 22.2591 30.4413 21.2333C31.1963 20.085 31.8861 18.887 32.0772 17.508C32.3471 15.5601 32.0187 13.7141 30.8375 12.0855C30.7591 11.9776 30.6891 11.857 30.5353 11.8277C30.3924 11.8005 30.2865 11.7253 30.2731 11.5584C30.2587 11.3791 30.3712 11.2938 30.499 11.2059C30.7638 11.0236 31.0264 10.8373 31.2824 10.6425C31.4703 10.4994 31.6288 10.3242 31.764 10.1282C31.9228 9.89809 32.0096 9.65787 31.823 9.40673C31.6175 9.13017 31.3444 8.93996 30.9937 9.05308C30.4641 9.22392 30.0567 9.59693 29.6592 9.97376C29.5665 10.0617 29.5874 10.1807 29.5881 10.2908C29.5913 10.8636 29.598 11.4364 29.6014 12.0092C29.6022 12.1368 29.5969 12.2559 29.7553 12.3073C29.9013 12.3546 29.9776 12.4708 29.9504 12.6253C29.9235 12.7775 29.8046 12.837 29.6646 12.8821C29.1169 13.0586 28.7465 13.4549 28.4538 13.9282C28.2668 14.2306 28.3481 14.3525 28.7055 14.3566C28.9724 14.3596 29.2144 14.265 29.4519 14.1578C29.7336 14.0307 30.0106 13.8928 30.2943 13.7703C30.4646 13.6968 30.6394 13.6845 30.7487 13.8772C30.8597 14.073 30.7562 14.2115 30.599 14.3163C30.4034 14.4467 30.1978 14.562 30.0025 14.6929C29.859 14.789 29.7159 14.8896 29.5899 15.007C29.4895 15.1006 29.4115 15.2274 29.4825 15.3746C29.5439 15.5017 29.6716 15.517 29.7984 15.5294C30.0864 15.5577 30.362 15.4649 30.6454 15.448C30.8327 15.4368 31.0106 15.4536 31.0405 15.6807C31.0711 15.9121 30.9251 16.0191 30.7136 16.0452C30.1779 16.1116 29.6387 16.2529 29.1265 15.9279C29.0578 15.8843 28.9347 15.9173 28.8386 15.9294C28.0704 16.0262 27.6718 15.5987 27.7077 14.8168C27.7485 13.9288 27.7171 13.0375 27.7171 12.175Z" fill="#D5B58F"/>
<path d="M2.49418 20.2893C2.48587 20.8301 2.63276 21.6307 2.99477 22.3843C3.08896 22.5804 3.14953 22.7776 2.92217 22.9024C2.71916 23.0138 2.5791 22.8881 2.46954 22.7084C2.3582 22.5258 2.20752 22.3769 2.00614 22.293C1.83238 22.2206 1.64837 22.2245 1.52582 22.3672C1.39807 22.516 1.50786 22.6689 1.59552 22.8076C1.68578 22.9506 1.8231 23.0269 1.96554 23.1062C2.11488 23.1895 2.15541 23.3323 2.08549 23.4914C2.02158 23.637 1.89851 23.6792 1.74872 23.656C1.73662 23.6541 1.72527 23.6481 1.71332 23.6455C1.3522 23.5647 0.985967 23.5073 0.746734 23.8818C0.502379 24.2646 0.603922 24.6544 0.817175 25.0087C1.18037 25.6123 1.72393 25.9688 2.42485 25.9986C4.85066 26.1018 7.48415 24.6887 8.08242 21.5955C8.51605 19.3536 7.8809 17.4554 6.08609 16.0183C5.14764 15.267 4.36507 15.3983 3.6398 16.3657C2.83577 17.4382 2.49581 18.6643 2.49418 20.2893Z" fill="#D5B58F"/>
<path d="M18.6067 3.43095C17.5329 3.05645 16.4564 2.72725 15.4181 2.30325C14.6848 2.00389 14.0276 1.99641 13.294 2.3055C12.3506 2.70295 11.3637 2.99581 10.3959 3.33473C10.3062 3.36613 10.219 3.40486 10.0762 3.46183C11.4945 3.95447 12.8586 4.42834 14.2229 4.90176C14.3196 4.93533 14.4162 4.93166 14.5135 4.89772C15.8549 4.42991 17.1965 3.96292 18.5377 3.49451C18.5564 3.488 18.5697 3.46587 18.6067 3.43095Z" fill="#B09EB9"/>
<path d="M6.07544 29.5573C4.99351 28.9064 4.34655 27.9795 3.96027 26.8543C3.90505 26.6935 3.85071 26.6208 3.6742 26.7086C2.99955 27.0443 2.31645 27.359 1.58442 27.554C1.32589 27.623 1.3653 27.7845 1.51138 27.9412C1.68047 28.1227 1.90998 28.1975 2.14179 28.2274C2.68543 28.2974 3.22758 28.2872 3.74546 28.0736C3.93934 27.9937 4.14517 27.9151 4.2652 28.1458C4.39791 28.4008 4.19943 28.5275 4.00436 28.6321C3.93912 28.6672 3.87209 28.6994 3.80892 28.7382C3.64318 28.8397 3.35287 28.9021 3.36609 29.0851C3.38294 29.3172 3.68326 29.3589 3.88478 29.428C4.57494 29.6647 5.28158 29.7184 6.07544 29.5573Z" fill="#D5B58E"/>
<path d="M11.7601 4.68733C11.624 5.12815 11.7587 5.4175 12.1416 5.59851C13.659 6.31604 15.1685 6.30826 16.6684 5.54766C16.7547 5.50393 16.8306 5.43275 16.9 5.36284C17.0745 5.18714 17.0512 4.93989 16.9746 4.76897C16.9054 4.61473 16.7182 4.77959 16.5935 4.82108C15.949 5.03537 15.3068 5.25742 14.6685 5.4898C14.4597 5.56583 14.2726 5.56815 14.0617 5.49174C13.2979 5.21488 12.5282 4.95424 11.7601 4.68733Z" fill="#B09EB9"/>
<path d="M28.7975 4.31679C28.6411 6.41361 28.5625 8.51447 28.4903 10.6153C28.4637 11.391 28.486 12.1684 28.486 12.9136C28.8776 12.7237 29.0352 12.3854 29.0189 11.8592C28.9411 9.34684 28.9075 6.83297 28.8583 4.3197C28.8398 4.28247 28.8195 4.2815 28.7975 4.31679Z" fill="#FDFDFD"/>
<path d="M15.4165 30.2692C15.5337 30.4799 15.6364 30.6758 15.7501 30.865C15.836 31.0079 15.9694 31.1013 16.1276 31.1455C16.2326 31.1748 16.3552 31.2007 16.4378 31.1003C16.5086 31.0143 16.4724 30.9125 16.4298 30.8202C16.3987 30.7529 16.3579 30.6891 16.3352 30.6192C16.2861 30.469 16.2786 30.3172 16.4343 30.225C16.5796 30.1391 16.7222 30.1729 16.8338 30.2972C16.9842 30.4645 17.1413 30.6161 17.3683 30.6744C17.6165 30.7381 17.6928 30.6218 17.6493 30.3993C17.58 30.0449 17.3072 29.8682 16.9667 29.9642C16.4602 30.1071 15.9375 30.1682 15.4165 30.2692Z" fill="#FF8F75"/>
<path d="M10.3174 30.4775C10.4156 30.7931 10.4808 31.128 10.7972 31.3172C10.9061 31.3822 11.0288 31.4382 11.1414 31.3618C11.2635 31.279 11.2289 31.1343 11.1903 31.0227C11.1188 30.8156 11.0466 30.6205 11.2739 30.4637C11.0346 30.3228 10.5109 30.3303 10.3174 30.4775Z" fill="#FF8F74"/>
<path d="M10.3173 30.4775C10.6345 30.3562 10.9537 30.3761 11.2739 30.4637C11.4626 30.4389 11.6082 30.4962 11.7097 30.6693C11.7588 30.7529 11.8236 30.837 11.9015 30.8914C12.0478 30.9933 12.1985 31.1514 12.3958 31.0363C12.5022 30.9741 12.4853 30.8352 12.4447 30.7288C12.3709 30.5356 12.3214 30.3284 12.0325 30.3365C11.4789 30.3522 10.9245 30.3415 10.3704 30.3406C10.2309 30.3404 10.1552 30.3611 10.3173 30.4775Z" fill="#FE8E74"/>
<path d="M9.9104 30.34C9.71481 30.34 9.58053 30.3409 9.44626 30.3398C9.01842 30.3365 8.9813 30.3969 9.16843 30.7877C9.23405 30.9249 9.32364 31.0415 9.45561 31.1167C9.53912 31.1643 9.6322 31.2256 9.7301 31.1767C9.843 31.1204 9.80797 31.0043 9.79579 30.9113C9.7713 30.7247 9.7546 30.5428 9.9104 30.34Z" fill="#FC8D72"/>
<path d="M14.6893 30.3209C14.5405 30.3598 14.2976 30.2523 14.2537 30.3886C14.1894 30.5881 14.345 30.7846 14.4976 30.9358C14.5576 30.9952 14.6298 31.0461 14.7041 31.0864C14.801 31.1387 14.9088 31.1932 15.0105 31.0997C15.1035 31.0142 15.0505 30.916 15.0109 30.8273C14.9372 30.6621 14.9261 30.4979 14.9977 30.33C14.8965 30.2748 14.7932 30.2864 14.6893 30.3209Z" fill="#FF8F74"/>
<path d="M10.6852 4.30161C10.4641 4.38512 10.4405 4.60897 10.3898 4.78968C10.3624 4.88755 10.4389 5.09503 10.5617 5.04643C10.7594 4.96823 11.078 5.05436 11.1232 4.70288C11.1677 4.35671 10.8719 4.4092 10.6852 4.30161Z" fill="#FAF9F8"/>
<path d="M28.6091 15.3441C28.8146 15.3744 28.8706 15.2771 28.875 15.1151C28.8827 14.8346 28.666 14.993 28.5571 14.957C28.4612 14.9254 28.2998 14.8625 28.305 15.084C28.3103 15.3068 28.4831 15.3143 28.6091 15.3441Z" fill="#EEEBE6"/>
<path d="M9.89917 5.30901C9.8029 5.18138 9.70544 5.16471 9.6013 5.28142C9.56923 5.31738 9.54689 5.37727 9.59662 5.40494C9.72385 5.47566 9.80884 5.38871 9.89917 5.30901Z" fill="#A894A6"/>
<path d="M28.7976 4.31679C28.8178 4.31918 28.8381 4.32015 28.8584 4.3197C28.8584 4.20972 28.8584 4.09974 28.8584 3.98983C28.8381 3.98908 28.8179 3.98834 28.7976 3.98751C28.7976 4.09727 28.7976 4.20703 28.7976 4.31679Z" fill="#DCD4CA"/>
<path d="M14.6894 30.3209C14.7922 30.324 14.895 30.327 14.9978 30.33C14.8992 30.1857 14.794 30.2644 14.6894 30.3209Z" fill="#B6673C"/>
<path d="M14.9813 17.0116C16.1961 16.9453 17.9225 17.0129 19.6016 16.5744C20.7884 16.2645 21.8274 15.6905 22.2361 14.4539C22.823 12.6776 22.7125 10.9053 21.7828 9.26056C20.8274 7.57047 18.9694 7.05578 17.08 7.87006C16.5069 8.11708 15.9995 8.46475 15.4991 8.83133C14.5981 9.49114 14.1881 9.49084 13.3149 8.79843C12.7367 8.33996 12.1208 7.96449 11.4243 7.71978C9.72231 7.12179 8.16154 7.66011 7.2484 9.22938C6.39509 10.6958 6.19787 12.2945 6.50264 13.9521C6.68829 14.9622 7.2985 15.6677 8.1913 16.1395C9.06139 16.5993 10.0078 16.7646 10.9689 16.8659C12.1371 16.9891 13.309 17.045 14.9813 17.0116Z" fill="#6E4100"/>
<path d="M14.3847 19.9424C14.1885 19.9424 13.9909 19.9285 13.7962 19.9456C13.4997 19.9716 13.2355 20.0799 13.1329 20.3909C13.0262 20.7138 13.1633 20.975 13.4034 21.1824C13.9614 21.6642 15.0311 21.615 15.5447 21.0884C15.729 20.8994 15.8196 20.6776 15.7413 20.412C15.6662 20.1576 15.4755 20.0415 15.2304 19.9862C14.9491 19.9228 14.6667 19.9647 14.3847 19.9424Z" fill="#6E4100"/>
<path d="M18.0123 20.8362C18.6868 20.8393 19.2558 20.4466 19.4669 19.8296C19.5508 19.5843 19.5875 19.3285 19.3788 19.1343C19.1807 18.9499 18.9337 19.0018 18.718 19.1082C18.3951 19.2675 18.0658 19.3874 17.7119 19.4642C17.1678 19.5824 16.9545 19.8123 16.9929 20.1593C17.0306 20.5 17.4167 20.8004 17.8639 20.8357C17.9131 20.8395 17.9628 20.8362 18.0123 20.8362Z" fill="#6E4100"/>
<path d="M10.6931 20.8775C10.9291 20.8562 11.2016 20.8395 11.4428 20.6961C11.6687 20.5618 11.8194 20.3726 11.8061 20.0941C11.7926 19.8117 11.6236 19.6197 11.3724 19.551C10.9451 19.4343 10.5444 19.278 10.1481 19.0717C9.76371 18.8717 9.40913 19.165 9.41336 19.6083C9.41974 20.2787 10.0078 20.878 10.6931 20.8775Z" fill="#6E4100"/>
<path d="M14.4048 16.431C16.0059 16.3575 17.6161 16.3996 19.1967 16.0558C19.3293 16.0269 19.462 15.9966 19.5921 15.9582C20.9583 15.5547 21.7919 14.7026 21.922 13.2191C22.0494 11.7667 21.923 10.3696 20.9962 9.18378C20.2603 8.24224 19.261 7.90213 18.0916 8.17047C17.412 8.32643 16.7874 8.62258 16.2278 9.048C16.1293 9.12299 16.031 9.19828 15.9313 9.2717C14.7394 10.1493 13.9799 10.1402 12.8351 9.19746C12.2405 8.70774 11.5788 8.37107 10.8396 8.18093C9.68362 7.88374 8.70998 8.22348 8.02294 9.17286C6.95519 10.6484 6.7429 12.3255 7.1559 14.0741C7.34547 14.8765 7.9427 15.3716 8.67213 15.7054C9.65853 16.1569 10.7181 16.2524 11.7762 16.3375C12.65 16.4078 13.5265 16.4499 14.4048 16.431Z" fill="#FEFEFE"/>
<path d="M15.1072 20.5385C14.6985 20.5385 14.2898 20.5379 13.8811 20.5391C13.8202 20.5392 13.74 20.5451 13.7421 20.6194C13.7436 20.6682 13.7979 20.7246 13.8418 20.7616C14.1519 21.0237 14.7078 20.9665 15.1072 20.5385Z" fill="#F7F5F3"/>
<path d="M17.6374 20.1124C18.1044 20.3503 18.4907 20.2417 18.7593 19.7891C18.4129 19.9606 18.0239 19.9783 17.6374 20.1124Z" fill="#F5F4F1"/>
<path d="M10.1191 19.7773C10.3387 20.3205 10.6799 20.4176 11.1777 20.1133C10.8244 19.9803 10.4321 20.0261 10.1191 19.7773Z" fill="#F7F5F3"/>
<path d="M17.7416 12.9024C17.3171 13.6972 17.8446 14.357 18.4112 14.6625C18.8633 14.9065 19.3098 14.7311 19.6945 14.4766C20.1259 14.191 20.2642 13.7442 20.1758 13.2362C20.0628 12.5864 19.5165 12.0822 18.8677 12.0148C18.7777 12.0628 18.7766 12.1544 18.7574 12.2384C18.6479 12.7178 18.4381 12.8822 17.954 12.8676C17.8803 12.8653 17.8057 12.8488 17.7416 12.9024Z" fill="#FFE0C5"/>
<path d="M10.0805 11.9442C9.99571 12.0839 9.85133 12.1184 9.70934 12.1556C9.22471 12.2826 8.82092 12.7366 8.75857 13.2259C8.69176 13.7501 8.933 14.2965 9.38014 14.5204C9.8549 14.7581 10.3357 14.6646 10.7404 14.3602C11.1186 14.0755 11.1954 13.6435 11.1085 13.1851C11.0902 13.0882 11.0658 12.9923 11.0442 12.8959C10.9875 12.8399 10.9133 12.835 10.8407 12.8226C10.3757 12.7433 10.23 12.5984 10.1579 12.1412C10.1465 12.0686 10.1533 11.9912 10.0805 11.9442Z" fill="#FFE0C5"/>
<path d="M14.4476 12.1684C14.3737 12.1684 14.2994 12.163 14.226 12.1692C13.435 12.2354 13.162 12.6833 13.4666 13.4179C13.6447 13.8476 13.9356 14.201 14.2355 14.547C14.392 14.7276 14.5474 14.7114 14.7032 14.5395C15.0116 14.1991 15.2911 13.8381 15.474 13.4123C15.7726 12.7167 15.5262 12.2793 14.7794 12.1768C14.6707 12.1619 14.5583 12.1747 14.4476 12.1747C14.4476 12.1726 14.4476 12.1705 14.4476 12.1684Z" fill="#6E4100"/>
<path d="M10.0804 11.9442C10.031 12.6669 10.3203 12.9527 11.0441 12.8959C11.3074 12.7294 11.5503 12.5493 11.5656 12.1938C11.5825 11.799 11.3346 11.4412 10.9805 11.3582C10.6261 11.2751 10.2999 11.4875 10.0804 11.9442Z" fill="#6E4300"/>
<path d="M17.7415 12.9024C18.4833 13.0946 18.8503 12.8052 18.8677 12.0148C18.7489 11.6585 18.5464 11.3963 18.1346 11.4087C17.7929 11.4191 17.5594 11.6087 17.4352 11.9209C17.2742 12.3258 17.4419 12.6376 17.7415 12.9024Z" fill="#6E4100"/>
<path d="M14.4832 12.6702C14.4094 12.6702 14.335 12.6644 14.2617 12.6712C13.8213 12.7124 13.7353 12.8468 13.9294 13.2408C14.0436 13.4726 14.1995 13.6834 14.3354 13.9044C14.4313 14.0603 14.5211 14.038 14.6078 13.8973C14.7438 13.6764 14.8972 13.464 15.0105 13.2319C15.1994 12.8447 15.124 12.7222 14.7044 12.6747C14.6311 12.6665 14.5571 12.6656 14.4834 12.6615C14.4833 12.6644 14.4833 12.6673 14.4832 12.6702Z" fill="#FF8F75"/>
</g>
<defs>
<clipPath id="clip0_168_727">
<rect width="36" height="32" fill="white" transform="matrix(-1 0 0 1 36 0)"/>
</clipPath>
</defs>
</svg>
